<svg width="301" height="60" viewBox="0 0 301 60" fill="none" xmlns="http://www.w3.org/2000/svg">
<path d="M36.0156 44.3908L37.386 43.4011C39.112 42.3859 40.3303 41.8783 41.0406 41.8783C42.6146 41.8783 44.315 43.2998 46.1424 46.1424C47.2594 47.919 47.8177 49.3401 47.8177 50.4064C47.8177 51.4723 47.4621 52.3606 46.7513 53.0714C46.0917 53.7817 45.3047 54.4162 44.3913 54.975C43.4774 55.5332 42.589 56.066 41.7263 56.5736C40.9142 57.0812 39.2133 57.7413 36.6246 58.5534C34.0358 59.3655 31.5233 59.7718 29.0866 59.7718C26.7009 59.7718 24.2642 59.4673 21.7768 58.8579C19.3405 58.1982 16.8024 57.1323 14.1626 55.6602C11.5738 54.1373 9.23887 52.31 7.15773 50.1777C5.07615 47.9952 3.35061 45.2285 1.97978 41.8783C0.660072 38.4774 0 34.7971 0 30.8377C0 26.8783 0.660072 23.2996 1.97978 20.1016C3.2995 16.8528 4.97481 14.1879 7.00527 12.1066C9.08641 9.97465 11.4469 8.19799 14.0863 6.77667C19.0611 4.03554 24.0611 2.66498 29.0866 2.66498C31.4722 2.66498 33.8833 3.04569 36.3201 3.80712C38.8075 4.51778 40.6855 5.25382 41.9545 6.01525L43.7819 7.08124C44.6957 7.63962 45.4065 8.09647 45.9141 8.4518C47.2338 9.51779 47.8939 10.7361 47.8939 12.1066C47.8939 13.4264 47.3607 14.8224 46.2948 16.2945C44.315 19.0356 42.5384 20.4062 40.9649 20.4062C40.051 20.4062 38.7568 19.8478 37.0815 18.7311C34.9497 17.0051 32.1067 16.1422 28.5534 16.1422C25.2539 16.1422 22.0055 17.2843 18.8073 19.5686C17.2845 20.6853 16.0155 22.2589 15.0002 24.2894C13.985 26.3199 13.4774 28.6296 13.4774 31.2184C13.4774 33.7565 13.985 36.0408 15.0002 38.0712C16.0155 40.1016 17.31 41.7007 18.8836 42.868C21.9799 45.1016 25.2032 46.2186 28.5534 46.2186C30.1273 46.2186 31.5991 46.0155 32.9699 45.6092C34.391 45.2034 35.4062 44.7971 36.0156 44.3908ZM75.0544 19.0356C80.1306 19.0356 84.3435 20.9645 87.6937 24.8224C91.095 28.6803 92.7954 33.4012 92.7954 38.9851V52.3858C92.7954 53.5535 92.7447 54.4418 92.6434 55.0507C92.5923 55.6095 92.364 56.2691 91.9577 57.0305C91.2981 58.3503 89.3439 59.0103 86.0951 59.0103C82.9987 59.0103 81.0696 58.3503 80.3081 57.0305C79.9019 56.2691 79.6481 55.5839 79.5467 54.975C79.4961 54.3656 79.4705 53.4521 79.4705 52.2337V38.9088C79.4705 36.8277 78.8866 35.2032 77.7194 34.0357C76.5517 32.8682 75.0544 32.2844 73.2271 32.2844C71.4504 32.2844 69.8765 32.8427 68.5061 33.9595C67.1357 35.0255 66.3487 36.2438 66.1456 37.6142V52.3858C66.1456 53.5535 66.0949 54.4418 65.9936 55.0507C65.9429 55.6095 65.7142 56.2691 65.3084 57.0305C64.6483 58.3503 62.6941 59.0103 59.4452 59.0103C56.2471 59.0103 54.2928 58.3251 53.5821 56.9543C53.2269 56.1929 52.9987 55.5332 52.8969 54.975C52.8462 54.4162 52.8207 53.5279 52.8207 52.31V6.77667C52.8207 5.60915 52.8462 4.74621 52.8969 4.18783C52.9987 3.57869 53.2269 2.91879 53.5821 2.20813C54.2928 0.837566 56.2726 0.152285 59.5215 0.152285C62.7192 0.152285 64.6483 0.837566 65.3084 2.20813C65.7142 2.96955 65.9429 3.65483 65.9936 4.26397C66.0949 4.82235 66.1456 5.6853 66.1456 6.85281V23.6803C68.6837 20.5838 71.6531 19.0356 75.0544 19.0356ZM137.604 34.1879C137.604 37.2842 136.817 39.594 135.243 41.1169C133.72 42.589 132.02 43.3249 130.142 43.3249H112.096C112.096 44.7464 112.933 45.9392 114.609 46.9038C116.284 47.8683 117.959 48.3504 119.634 48.3504C122.578 48.3504 124.888 48.0459 126.563 47.4365L127.401 47.132C128.619 46.5737 129.634 46.2944 130.446 46.2944C132.07 46.2944 133.466 47.4365 134.634 49.7208C135.294 51.0916 135.624 52.2589 135.624 53.2234C135.624 57.7413 130.218 60 119.406 60C115.649 60 112.299 59.3655 109.355 58.0964C106.461 56.7767 104.203 55.0507 102.578 52.9189C99.3803 48.8073 97.7812 44.2132 97.7812 39.1371C97.7812 32.7413 99.8373 27.6397 103.949 23.8326C108.111 19.9747 113.289 18.0457 119.482 18.0457C126.538 18.0457 131.715 20.5331 135.015 25.5077C136.741 28.1473 137.604 31.0407 137.604 34.1879ZM121.538 36.3959C123.467 36.3959 124.431 35.5839 124.431 33.9595C124.431 32.792 123.974 31.8529 123.061 31.1423C122.197 30.4316 120.928 30.0763 119.254 30.0763C117.629 30.0763 116.005 30.7616 114.38 32.1321C112.756 33.4519 111.944 34.8732 111.944 36.3959H121.538ZM164.88 18.8833C169.956 18.8833 174.169 20.8376 177.52 24.7463C180.92 28.6042 182.621 33.325 182.621 38.9088V52.31C182.621 53.4772 182.571 54.3656 182.469 54.975C182.418 55.5332 182.215 56.1678 181.86 56.8785C181.149 58.2489 179.169 58.9341 175.921 58.9341C172.317 58.9341 170.235 57.9951 169.677 56.1171C169.373 55.2539 169.22 53.9597 169.22 52.2337V38.8326C169.22 36.7515 168.611 35.127 167.393 33.9595C166.225 32.792 164.626 32.2082 162.596 32.2082C160.616 32.2082 158.992 32.8174 157.723 34.0357C156.504 35.254 155.895 36.8528 155.895 38.8326V52.31C155.895 53.4772 155.845 54.3656 155.743 54.975C155.692 55.5332 155.464 56.1678 155.058 56.8785C154.398 58.2489 152.443 58.9341 149.195 58.9341C145.997 58.9341 144.043 58.2489 143.332 56.8785C142.977 56.1171 142.748 55.457 142.647 54.8987C142.596 54.2893 142.57 53.401 142.57 52.2337V25.2793C142.57 24.1626 142.596 23.325 142.647 22.7666C142.748 22.1575 143.002 21.4975 143.408 20.7869C144.119 19.5178 146.073 18.8833 149.271 18.8833C152.367 18.8833 154.271 19.4671 154.981 20.6346C155.489 21.4976 155.743 22.5381 155.743 23.7564C155.946 23.4011 156.403 22.8935 157.114 22.2336C157.824 21.5737 158.51 21.0407 159.169 20.6346C160.895 19.4671 162.799 18.8833 164.88 18.8833ZM215.626 2.20813C216.032 1.4467 216.717 0.913708 217.682 0.609139C218.646 0.304569 219.915 0.152285 221.489 0.152285C223.113 0.152285 224.408 0.304569 225.372 0.609139C226.336 0.913708 226.996 1.4467 227.351 2.20813C227.758 2.96955 227.986 3.65483 228.037 4.26397C228.138 4.82235 228.189 5.6853 228.189 6.85281V52.31C228.189 53.4772 228.138 54.3656 228.037 54.975C227.986 55.5332 227.758 56.1678 227.351 56.8785C226.59 58.2489 224.433 58.9341 220.88 58.9341C217.377 58.9341 215.423 57.6906 215.017 55.2032C212.884 57.6399 209.915 58.8579 206.108 58.8579C201.539 58.8579 197.377 56.8785 193.621 52.9189C189.864 48.9087 187.986 44.2639 187.986 38.9851C187.986 33.655 189.864 28.9849 193.621 24.9747C197.428 20.9646 201.59 18.9595 206.108 18.9595C209.864 18.9595 212.783 20.2285 214.864 22.7666V6.77667C214.864 5.60915 214.89 4.74621 214.94 4.18783C215.042 3.57869 215.27 2.91879 215.626 2.20813ZM203.291 43.5536C204.611 44.924 206.21 45.6092 208.088 45.6092C209.966 45.6092 211.514 44.924 212.732 43.5536C214.001 42.1828 214.636 40.6855 214.636 39.0609C214.636 37.386 214.027 35.8377 212.809 34.4163C211.641 32.995 210.042 32.2844 208.011 32.2844C205.981 32.2844 204.357 32.995 203.138 34.4163C201.92 35.7869 201.311 37.3098 201.311 38.9851C201.311 40.6599 201.971 42.1828 203.291 43.5536ZM233.111 38.9851C233.111 32.8935 235.244 27.8681 239.507 23.9087C243.771 19.9493 248.644 17.9696 254.127 17.9696C259.609 17.9696 264.457 19.9493 268.67 23.9087C272.883 27.8174 274.99 32.8174 274.99 38.9088C274.99 43.1218 273.898 46.8782 271.716 50.1777C269.533 53.4266 266.868 55.8377 263.721 57.4113C260.624 58.9341 257.401 59.6955 254.051 59.6955C250.7 59.6955 247.452 58.8834 244.305 57.2592C241.157 55.5839 238.492 53.1472 236.31 49.9495C234.177 46.7006 233.111 43.046 233.111 38.9851ZM249.025 44.467C250.65 45.6854 252.3 46.2944 253.974 46.2944C255.65 46.2944 257.325 45.6599 259 44.3908C260.675 43.1218 261.513 41.2438 261.513 38.7564C261.513 36.269 260.726 34.4164 259.152 33.1981C257.578 31.9798 255.878 31.3707 254.051 31.3707C252.223 31.3707 250.523 32.0052 248.949 33.2743C247.375 34.5433 246.589 36.4214 246.589 38.9088C246.589 41.3451 247.401 43.198 249.025 44.467ZM279.909 6.70053C279.909 5.53301 279.934 4.67006 279.985 4.11169C280.087 3.50255 280.315 2.81727 280.67 2.05584C281.381 0.685281 283.361 0 286.609 0C289.706 0 291.635 0.685281 292.396 2.05584C292.802 2.81727 293.031 3.50255 293.082 4.11169C293.183 4.72083 293.234 5.60915 293.234 6.77667V42.0308C293.234 43.8581 293.386 45.0253 293.69 45.533C293.995 45.9899 294.655 46.2186 295.67 46.2186C296.736 46.2186 297.447 46.2693 297.803 46.3706C298.158 46.4213 298.589 46.6244 299.097 46.98C300.112 47.6396 300.62 49.4419 300.62 52.3858C300.62 55.5839 300.112 57.5382 299.097 58.2489C297.777 59.1628 294.63 59.3148 289.655 58.7058C285.747 58.1982 283.209 56.9036 282.041 54.8225C280.619 52.3351 279.909 48.376 279.909 42.9442V6.70053Z" fill="#0FAAAA"/>
</svg>
