<svg width="100" height="100" viewBox="0 0 100 100" fill="none" xmlns="http://www.w3.org/2000/svg">
<path d="M50.0234 85.9842C69.9055 85.9842 86.0233 69.8664 86.0233 49.9844C86.0233 30.1022 69.9055 13.9844 50.0234 13.9844C30.1413 13.9844 14.0234 30.1022 14.0234 49.9844C14.0234 69.8664 30.1413 85.9842 50.0234 85.9842Z" fill="white"/>
<path d="M100 50C100 77.6144 77.6144 100 50 100C22.3858 100 0 77.6144 0 50C0 22.3858 22.3858 0 50 0C77.6144 0 100 22.3858 100 50ZM14.0162 50C14.0162 69.8733 30.1266 85.9839 50 85.9839C69.8733 85.9839 85.9839 69.8733 85.9839 50C85.9839 30.1266 69.8733 14.0162 50 14.0162C30.1266 14.0162 14.0162 30.1266 14.0162 50Z" fill="#0FAAAA"/>
<path fill-rule="evenodd" clip-rule="evenodd" d="M50.0195 80C66.5881 80 80.0192 68.5239 80.0192 54.3673C80.0192 40.2108 54.1335 65.0005 37.5649 65.0005C20.9964 65.0005 20.0188 54.3673 20.0195 54.3673C20.0195 68.5239 33.4509 80 50.0195 80Z" fill="#0FAAAA"/>
</svg>

